<svg id="visual" viewBox="0 0 1920 1080" width="1920" height="1080" xmlns="http://www.w3.org/2000/svg" xmlns:xlink="http://www.w3.org/1999/xlink" version="1.1"><path d="M0 801L45.7 820C91.3 839 182.7 877 274.2 860.3C365.7 843.7 457.3 772.3 548.8 777.5C640.3 782.7 731.7 864.3 823 881.8C914.3 899.3 1005.7 852.7 1097 847.8C1188.3 843 1279.7 880 1371.2 867.5C1462.7 855 1554.3 793 1645.8 749.5C1737.3 706 1828.7 681 1874.3 668.5L1920 656L1920 1081L1874.3 1081C1828.7 1081 1737.3 1081 1645.8 1081C1554.3 1081 1462.7 1081 1371.2 1081C1279.7 1081 1188.3 1081 1097 1081C1005.7 1081 914.3 1081 823 1081C731.7 1081 640.3 1081 548.8 1081C457.3 1081 365.7 1081 274.2 1081C182.7 1081 91.3 1081 45.7 1081L0 1081Z" fill="#ffffff" stroke-linecap="round" stroke-linejoin="miter"></path></svg>